<svg width="2000" height="200" viewBox="0 0 2000 200" fill="none" xmlns="http://www.w3.org/2000/svg">
<rect width="2000" height="200" fill="white"/>
<path d="M144.6 176H120.6L85 75.2H84.6V176H53.2V33.4H100.4L133.8 129.2H134.2L167.6 33.4H213.8V176H180.6V75.2H180.2L144.6 176Z" fill="black"/>
<path d="M346.8 176L335.4 145.4H275L263.2 176H229.4L286.2 33.2H325.2L382.2 176H346.8ZM305.2 66.2L285 119H325.6L305.8 66.2H305.2Z" fill="black"/>
<path d="M456.8 33.2C501.4 33.2 529.8 61.6 529.8 104.4C529.8 147.4 501.4 176 456.8 176H398.2V33.2H456.8ZM456.8 59.8H432V149.2H456.8C481.2 149.2 494.6 133.8 494.6 104.4C494.6 75.2 481.2 59.8 456.8 59.8Z" fill="black"/>
<path d="M660.6 176H551.2V33.2H659.2V59.8H585V91H650.4V117.6H585V149.2H660.6V176Z" fill="black"/>
<path d="M1078 104.4C1078 61 1106 30.8 1149.6 30.8C1186.2 30.8 1206.4 50.4 1212.8 80.2H1178.4C1175.4 66 1166.4 57.4 1149.6 57.4C1126.2 57.4 1113.2 74.8 1113.2 104.4C1113.2 134.2 1126.2 151.8 1149.6 151.8C1168 151.8 1179.2 141.6 1179.2 128.6V126H1157V101.6H1214.2V176H1187.4L1185.4 158.8C1180.4 170.6 1162.8 178.4 1146.8 178.4C1104.6 178.4 1078 148 1078 104.4Z" fill="black"/>
<path d="M1350.6 176H1241.2V33.2H1349.2V59.8H1275V91H1340.4V117.6H1275V149.2H1350.6V176Z" fill="black"/>
<path d="M1480.8 176L1469.4 145.4H1409L1397.2 176H1363.4L1420.2 33.2H1459.2L1516.2 176H1480.8ZM1439.2 66.2L1419 119H1459.6L1439.8 66.2H1439.2Z" fill="black"/>
<path d="M1571.8 33.2L1630.8 123.2H1631.2V33.2H1664.2V176H1632L1565.6 75.2H1565.2V176H1532.2V33.2H1571.8Z" fill="black"/>
<path d="M1802.6 176H1693.2V33.2H1801.2V59.8H1727V91H1792.4V117.6H1727V149.2H1802.6V176Z" fill="black"/>
<path d="M1902.6 176H1867.8V117.8L1812 33.2H1850.6L1885.8 87.8H1886.2L1921 33.2H1958.6L1902.6 117.8V176Z" fill="black"/>
<path d="M807 176H739.2V33.2H803C837.8 33.2 855.8 46.8 855.8 72.8C855.8 85.2 845.8 98.8 834.6 102.4C848.6 106.4 860.8 118.4 860.8 134.8C860.8 162 841.2 176 807 176ZM773 91.4H801.6C816.6 91.4 822.8 84.4 822.8 74.6C822.8 64 815.6 57.8 801.8 57.8H773V91.4ZM773 115.4V151.4H804C819.2 151.4 826.8 144.6 826.8 133.2C826.8 122 819.2 115.4 804 115.4H773Z" fill="black"/>
<path d="M960.784 176H925.984V117.8L870.184 33.2H908.784L943.984 87.8H944.384L979.184 33.2H1016.78L960.784 117.8V176Z" fill="black"/>
</svg>
