<svg width="2867" height="818" viewBox="0 0 2867 818" fill="none" xmlns="http://www.w3.org/2000/svg">
<g clip-path="url(#clip0_220_23)">
<path d="M169.063 543.04C95.9833 543.04 48.8233 486.88 48.8233 409.48C48.8233 331.72 96.3433 275.56 169.423 275.56C233.863 275.56 273.823 316.6 279.943 368.08H238.543C233.863 342.88 218.023 309.76 168.703 309.76C111.823 309.76 90.2233 358 90.2233 409.12C90.2233 460.6 111.823 508.84 168.703 508.84C218.383 508.84 236.023 475.72 238.543 444.4H279.943C274.183 501.64 233.863 543.04 169.063 543.04ZM429.363 543.04C352.323 543.04 303.003 486.52 303.003 409.12C303.003 331.72 352.323 275.56 429.363 275.56C506.403 275.56 555.723 331.72 555.723 409.12C555.723 486.52 506.403 543.04 429.363 543.04ZM429.363 508.84C490.203 508.84 514.323 462.04 514.323 409.12C514.323 356.2 490.203 309.76 429.363 309.76C368.523 309.76 344.403 356.2 344.403 409.12C344.403 462.04 368.523 508.84 429.363 508.84ZM764.312 538H594.392V280.6H633.992V503.8H764.312V538ZM893.774 538H795.134V280.6H893.054C964.334 280.6 1007.53 326.68 1007.53 409.48C1007.53 492.28 965.054 538 893.774 538ZM834.734 503.8H891.254C951.014 503.8 966.494 459.16 966.494 409.48C966.494 359.8 951.014 314.8 891.254 314.8H834.734V503.8ZM1161.69 538H1122.09V280.6H1161.69V388.24H1288.05V280.6H1328.01V538H1288.05V422.44H1161.69V538ZM1396.37 538H1354.61L1450.37 280.6H1493.21L1589.69 538H1546.49L1525.25 476.08H1417.61L1396.37 538ZM1471.25 317.32L1429.49 442.6H1514.09L1471.97 317.32H1471.25ZM1655.98 538H1616.38V280.6H1723.66C1780.54 280.6 1811.14 307.24 1811.14 354.76C1811.14 387.52 1791.34 411.28 1762.9 417.76V418.48C1822.66 429.64 1800.7 531.16 1814.74 535.48V538H1772.26C1760.74 527.2 1785.22 437.2 1722.22 437.2H1655.98V538ZM1655.98 403H1715.02C1751.38 403 1771.18 387.16 1771.18 357.64C1771.18 329.92 1755.34 314.8 1715.74 314.8H1655.98V403ZM1967.47 538H1852.63V280.6H1960.99C2013.91 280.6 2044.87 304.36 2044.87 345.4C2044.87 377.08 2026.15 391.84 2004.91 399.04V399.76C2031.91 404.44 2054.95 424.24 2054.95 462.76C2054.95 512.08 2020.75 538 1967.47 538ZM1892.23 387.52H1959.91C1992.31 387.52 2003.47 374.2 2003.47 351.16C2003.47 328.48 1989.79 314.8 1962.79 314.8H1892.23V387.52ZM1892.23 503.8H1964.59C2002.75 503.8 2013.55 485.44 2013.55 461.32C2013.55 434.32 1996.99 418.84 1969.99 418.84H1892.23V503.8ZM2206.51 543.04C2129.47 543.04 2080.15 486.52 2080.15 409.12C2080.15 331.72 2129.47 275.56 2206.51 275.56C2283.55 275.56 2332.87 331.72 2332.87 409.12C2332.87 486.52 2283.55 543.04 2206.51 543.04ZM2206.51 508.84C2267.35 508.84 2291.47 462.04 2291.47 409.12C2291.47 356.2 2267.35 309.76 2206.51 309.76C2145.67 309.76 2121.55 356.2 2121.55 409.12C2121.55 462.04 2145.67 508.84 2206.51 508.84ZM2470.18 543.04C2399.62 543.04 2369.74 505.96 2369.74 450.52V280.6H2409.34V450.52C2409.34 490.48 2429.5 508.84 2470.18 508.84C2511.22 508.84 2531.02 490.48 2531.02 450.52V280.6H2570.98V450.52C2570.98 505.96 2541.1 543.04 2470.18 543.04ZM2660.05 538H2620.45V280.6H2727.73C2784.61 280.6 2815.21 307.24 2815.21 354.76C2815.21 387.52 2795.41 411.28 2766.97 417.76V418.48C2826.73 429.64 2804.77 531.16 2818.81 535.48V538H2776.33C2764.81 527.2 2789.29 437.2 2726.29 437.2H2660.05V538ZM2660.05 403H2719.09C2755.45 403 2775.25 387.16 2775.25 357.64C2775.25 329.92 2759.41 314.8 2719.81 314.8H2660.05V403Z" fill="black"/>
</g>
<defs>
<clipPath id="clip0_220_23">
<rect width="2867" height="818" fill="white"/>
</clipPath>
</defs>
</svg>
